<?xml version="1.0" encoding="utf-8"?>
<!-- Generator: Adobe Illustrator 16.0.4, SVG Export Plug-In . SVG Version: 6.00 Build 0)  -->
<!DOCTYPE svg PUBLIC "-//W3C//DTD SVG 1.1//EN" "http://www.w3.org/Graphics/SVG/1.1/DTD/svg11.dtd">
<svg version="1.1" id="Capa_1" xmlns="http://www.w3.org/2000/svg" xmlns:xlink="http://www.w3.org/1999/xlink" x="0px" y="0px"
	 width="128px" height="128px" viewBox="191 191 128 128" enable-background="new 191 191 128 128" xml:space="preserve">
<g>
	<g id="shopping-cart">
		<path fill="#5F6468" d="M231.4,290.4c-6.49,0-11.8,5.31-11.8,11.8c0,6.489,5.31,11.8,11.8,11.8c6.49,0,11.8-5.311,11.8-11.8
			C243.2,295.71,237.89,290.4,231.4,290.4z M196,196v11.8h11.8l21.24,44.84l-8.26,14.16c-0.59,1.771-1.18,4.13-1.18,5.9
			c0,6.489,5.31,11.8,11.8,11.8h70.8v-11.8h-68.44c-0.59,0-1.18-0.59-1.18-1.18v-0.591l5.31-10.03h43.66
			c4.721,0,8.261-2.36,10.03-5.9l21.24-38.35c1.18-1.18,1.18-1.77,1.18-2.95c0-3.54-2.36-5.9-5.9-5.9H220.78L215.47,196H196z
			 M290.4,290.4c-6.49,0-11.801,5.31-11.801,11.8c0,6.489,5.311,11.8,11.801,11.8c6.489,0,11.8-5.311,11.8-11.8
			C302.2,295.71,296.89,290.4,290.4,290.4z"/>
	</g>
</g>
</svg>
