<?xml version="1.0" encoding="utf-8"?>
<!-- Generator: Adobe Illustrator 16.0.4, SVG Export Plug-In . SVG Version: 6.00 Build 0)  -->
<!DOCTYPE svg PUBLIC "-//W3C//DTD SVG 1.1//EN" "http://www.w3.org/Graphics/SVG/1.1/DTD/svg11.dtd">
<svg version="1.1" id="Capa_1" xmlns="http://www.w3.org/2000/svg" xmlns:xlink="http://www.w3.org/1999/xlink" x="0px" y="0px"
	 width="128px" height="128px" viewBox="0 0 128 128" enable-background="new 0 0 128 128" xml:space="preserve">
<g>
	<path fill="#5F6468" d="M61.14,42.277l-6.984,16.962c-0.237,0.575-0.774,0.97-1.394,1.024l-35.725,3.14
		c-0.877,0.077-1.542,0.822-1.52,1.702l0.727,28.043c0.02,0.771,0.568,1.428,1.323,1.586l42.058,8.847
		c1.028,0.217,2.073,0.324,3.118,0.322l0.001-8.318V42.593C62.742,40.279,62.021,40.135,61.14,42.277z M56.249,94.572L40.461,92.03
		v-8.276h15.788V94.572z M49.345,56.233L7.242,60.487c-1.286,0.13-2.223-1.192-1.675-2.362l11.21-23.964
		c0.229-0.488,0.679-0.835,1.207-0.932l46.263-8.496L50.7,55.252C50.457,55.797,49.941,56.172,49.345,56.233z M111.779,63.403
		l-35.726-3.14c-0.619-0.053-1.157-0.45-1.394-1.024l-6.984-16.962c-0.883-2.142-1.604-1.998-1.604,0.316v52.991l0.001,8.318
		c1.045,0.002,2.09-0.105,3.119-0.322l42.058-8.847c0.754-0.158,1.303-0.814,1.322-1.586l0.727-28.043
		C113.321,64.225,112.655,63.48,111.779,63.403z M97.077,78.382l-1.973,0.055l-0.041,12.417c-0.001,0.547-0.557,1.071-1.248,1.17
		l-3.233,0.465c-0.739,0.106-1.344-0.271-1.342-0.846l0.03-13.044l-2.257,0.062c-1.098,0.031-1.791-0.849-1.233-1.578l5.367-6.994
		c0.508-0.662,1.756-0.602,2.246,0.097l4.713,6.715C98.552,77.537,97.988,78.356,97.077,78.382z M121.573,60.487l-42.104-4.254
		c-0.595-0.061-1.111-0.436-1.354-0.982L64.567,24.732l46.262,8.496c0.53,0.097,0.979,0.444,1.209,0.932l11.21,23.964
		C123.796,59.295,122.858,60.617,121.573,60.487z"/>
</g>
</svg>
