<?xml version="1.0" encoding="utf-8"?>
<!-- Generator: Adobe Illustrator 16.0.4, SVG Export Plug-In . SVG Version: 6.00 Build 0)  -->
<!DOCTYPE svg PUBLIC "-//W3C//DTD SVG 1.1//EN" "http://www.w3.org/Graphics/SVG/1.1/DTD/svg11.dtd">
<svg version="1.1" id="Capa_1" xmlns="http://www.w3.org/2000/svg" xmlns:xlink="http://www.w3.org/1999/xlink" x="0px" y="0px"
	 width="128px" height="128px" viewBox="0 0 128 128" enable-background="new 0 0 128 128" xml:space="preserve">
<g>
	<g id="Layer_1_114_">
		<g>
			<path fill="#5F6468" d="M19.704,51.396H5.713C2.558,51.396,0,53.955,0,57.109v62.818c0,3.151,2.558,5.709,5.713,5.709h13.991
				c3.153,0,5.709-2.558,5.709-5.709V57.109C25.413,53.955,22.857,51.396,19.704,51.396z"/>
			<path fill="#5F6468" d="M53.113,68.525H39.121c-3.156,0-5.711,2.558-5.711,5.713v45.684c0,3.16,2.556,5.715,5.711,5.715h13.992
				c3.153,0,5.709-2.558,5.709-5.715V74.238C58.822,71.083,56.266,68.525,53.113,68.525z"/>
			<path fill="#5F6468" d="M86.517,68.525H72.524c-3.153,0-5.709,2.558-5.709,5.713v45.684c0,3.16,2.556,5.715,5.709,5.715h13.992
				c3.156,0,5.712-2.558,5.712-5.715V74.238C92.229,71.083,89.673,68.525,86.517,68.525z"/>
			<path fill="#5F6468" d="M119.924,51.396h-13.99c-3.153,0-5.709,2.558-5.709,5.713v62.818c0,3.154,2.556,5.709,5.709,5.709h13.99
				c3.155,0,5.713-2.561,5.713-5.709V57.109C125.637,53.955,123.079,51.396,119.924,51.396z"/>
			<path fill="#5F6468" d="M64.484,34.403v10.28c3.111-0.205,6.392-1.666,6.392-5.089C70.876,36.061,67.28,35.026,64.484,34.403z"/>
			<path fill="#5F6468" d="M55.542,22.099c0,2.599,1.933,4.1,5.828,4.88v-9.299C57.83,17.784,55.542,19.864,55.542,22.099z"/>
			<path fill="#5F6468" d="M62.818,0C45.5,0,31.409,14.093,31.409,31.409c0,17.312,14.09,31.404,31.409,31.404
				c17.319,0,31.409-14.093,31.409-31.404C94.228,14.093,80.138,0,62.818,0z M64.484,49.985V53.2c0,0.885-0.679,1.768-1.566,1.768
				c-0.877,0-1.548-0.883-1.548-1.768v-3.215c-8.776-0.214-13.141-5.458-13.141-9.562c0-2.071,1.254-3.27,3.216-3.27
				c5.816,0,1.293,7.167,9.925,7.527V33.829c-7.698-1.399-12.36-4.774-12.36-10.539c0-7.059,5.87-10.7,12.36-10.904V9.618
				c0-0.885,0.671-1.767,1.548-1.767c0.887,0,1.566,0.882,1.566,1.767v2.769c4.047,0.107,12.357,2.647,12.357,7.739
				c0,2.024-1.513,3.216-3.279,3.216c-3.383,0-3.331-5.551-9.078-5.658v9.866c6.854,1.457,12.924,3.479,12.924,11.478
				C77.408,45.983,72.218,49.512,64.484,49.985z"/>
		</g>
	</g>
</g>
</svg>
