<?xml version="1.0" encoding="utf-8"?>
<!-- Generator: Adobe Illustrator 16.0.4, SVG Export Plug-In . SVG Version: 6.00 Build 0)  -->
<!DOCTYPE svg PUBLIC "-//W3C//DTD SVG 1.1//EN" "http://www.w3.org/Graphics/SVG/1.1/DTD/svg11.dtd">
<svg version="1.1" id="Capa_1" xmlns="http://www.w3.org/2000/svg" xmlns:xlink="http://www.w3.org/1999/xlink" x="0px" y="0px"
	 width="128px" height="128px" viewBox="242 242.001 128 128" enable-background="new 242 242.001 128 128" xml:space="preserve">
<g>
	<path fill="#5F6468" d="M362.31,269.06l-13.073-16.402c-1.234-1.549-3.108-2.452-5.09-2.452h-67.569
		c-1.981,0-3.854,0.902-5.089,2.452l-13.073,16.402c-1.366,1.713-2.483,4.908-2.483,7.32v12.014c1.039-1.633,2.556-2.86,4.376-3.487
		c0.102-1.373,0.518-2.705,1.23-3.917c1.233-2.101,3.211-3.594,5.569-4.208c0.846-0.221,1.62-0.321,2.393-0.321
		c3.118,0,5.943,1.585,7.597,4.077c0.493-0.086,0.99-0.13,1.489-0.13c1.531,0,2.978,0.421,4.238,1.146l7.242-1.884
		c0.907-0.237,1.84-0.356,2.774-0.356c5.009,0,9.387,3.388,10.648,8.239l14.192,54.544c0.74,2.846,0.327,5.809-1.16,8.346
		c-1.489,2.535-3.878,4.339-6.724,5.08l-6.333,1.647h53.195c4.493,0,8.136-3.644,8.136-8.136v-72.877
		C364.793,273.968,363.676,270.773,362.31,269.06z M262.688,268.921l4.33-5.432h29.539l2.915-4.793h-28.633l3.196-4.01
		c0.621-0.779,1.549-1.226,2.545-1.226h67.569c0.997,0,1.925,0.447,2.545,1.226l3.196,4.01h-29.143l1.627,4.793h31.336l4.329,5.432
		H262.688z M264.008,288.961l-1.826,0.475c-1.945,0.506-3.111,2.493-2.605,4.438l0.019,0.071c0.506,1.945,2.493,3.112,4.438,2.605
		l15.486-4.029c1.945-0.506,3.111-2.493,2.605-4.438l-0.019-0.071c-0.506-1.945-2.493-3.112-4.438-2.605l-1.826,0.475
		c-0.976,0.254-1.973-0.331-2.227-1.307l-0.016-0.059c-0.589-2.266-2.904-3.625-5.17-3.036l-0.095,0.025
		c-2.266,0.589-3.625,2.904-3.035,5.17l0.016,0.06C265.569,287.711,264.984,288.708,264.008,288.961z M269,283.865
		c0.982-0.256,1.986,0.333,2.241,1.316c0.256,0.982-0.333,1.986-1.316,2.241c-0.982,0.255-1.986-0.334-2.241-1.316
		C267.428,285.124,268.018,284.121,269,283.865z M291.823,339.963c0.17,0.655-0.223,1.324-0.877,1.494l-22.53,5.861
		c-0.655,0.17-1.324-0.223-1.494-0.878l-0.309-1.186c-0.17-0.655,0.222-1.323,0.877-1.494l22.529-5.86
		c0.655-0.171,1.324,0.222,1.495,0.877L291.823,339.963z M294.57,316.46l0.309,1.186c0.17,0.655-0.222,1.324-0.877,1.494
		l-30.83,8.021c-0.655,0.171-1.324-0.223-1.494-0.877l-0.309-1.187c-0.17-0.654,0.222-1.323,0.877-1.494l30.83-8.02
		C293.731,315.412,294.4,315.805,294.57,316.46z M291.225,308.468l-30.83,8.021c-0.655,0.17-1.324-0.223-1.494-0.878l-0.309-1.186
		c-0.17-0.654,0.222-1.323,0.877-1.494l30.83-8.02c0.655-0.17,1.324,0.222,1.494,0.877l0.309,1.186
		C292.273,307.628,291.88,308.298,291.225,308.468z M290.541,330.168l-24.901,6.479c-0.655,0.17-1.324-0.223-1.494-0.878
		l-0.309-1.186c-0.17-0.655,0.222-1.323,0.877-1.494l24.901-6.478c0.655-0.171,1.324,0.223,1.495,0.877l0.308,1.186
		C291.588,329.329,291.195,329.998,290.541,330.168z M312.955,343.328l-14.19-54.546c-0.852-3.274-4.197-5.238-7.471-4.386
		l-7.23,1.881c0.171,0.353,0.312,0.726,0.415,1.119c0.864,3.321-1.092,6.653-4.342,7.498l-15.258,3.97
		c-3.115,0.81-6.469-0.793-7.514-3.837c-0.197-0.573-0.304-1.149-0.334-1.717l-7.238,1.883c-3.274,0.852-5.238,4.197-4.386,7.471
		l14.19,54.546c0.852,3.274,4.197,5.238,7.471,4.387l41.502-10.797C311.842,349.947,313.806,346.603,312.955,343.328z
		 M265.523,355.667l-12.339-47.431l41.502-10.797l12.339,47.431L265.523,355.667z"/>
</g>
</svg>
