<?xml version="1.0" encoding="utf-8"?>
<!-- Generator: Adobe Illustrator 16.0.4, SVG Export Plug-In . SVG Version: 6.00 Build 0)  -->
<!DOCTYPE svg PUBLIC "-//W3C//DTD SVG 1.1//EN" "http://www.w3.org/Graphics/SVG/1.1/DTD/svg11.dtd">
<svg version="1.1" id="Capa_1" xmlns="http://www.w3.org/2000/svg" xmlns:xlink="http://www.w3.org/1999/xlink" x="0px" y="0px"
	 width="128px" height="128px" viewBox="0 0 128 128" enable-background="new 0 0 128 128" xml:space="preserve">
<g>
	<g>
		<path fill="#5F6468" d="M78.665,66.229c-1.321-1.322-3.002-2.438-5.016-3.323c-1.873-0.821-3.911-1.231-5.874-1.629
			c-2.565-0.513-5.015-1.013-6.619-2.347c-0.231-0.192-0.449-0.41-0.642-0.642c-0.641-0.769-0.949-1.757-0.949-2.989
			c0-1.244,0.372-2.245,1.168-3.142c0.627-0.705,1.564-1.244,2.616-1.552c0.602-0.167,1.231-0.257,1.885-0.257
			c1.655,0,3.13,0.577,4.028,1.578c0.666,0.744,1.141,1.975,1.385,3.579c0.153,1.051,1.064,1.808,2.104,1.808
			c0.104,0,0.205-0.012,0.32-0.025l6.837-1.026c1.154-0.167,1.949-1.244,1.795-2.398l0,0c-0.59-4.168-2.372-7.516-5.297-9.953
			c-1.501-1.244-3.386-2.206-5.503-2.834v-3.309c0-1.181-0.949-2.13-2.129-2.13h-5.4H61.85c-1.18,0-2.129,0.949-2.129,2.13v3.258
			c-2.334,0.654-4.374,1.718-5.977,3.116c-3.373,2.95-5.092,6.849-5.092,11.569c0,1.334,0.154,2.604,0.449,3.81
			c0.295,1.205,0.731,2.334,1.308,3.398c1.193,2.181,2.912,3.912,5.118,5.143c3.117,1.745,6.144,2.515,9.478,3.258
			c2.207,0.5,4.631,1.219,5.888,2.745c0.577,0.719,0.885,1.77,0.885,3.117c0,1.68-0.462,3.039-1.424,4.129
			c-0.897,1.026-2.206,1.707-3.681,1.938c-0.347,0.052-0.719,0.077-1.078,0.077c-2.103,0-4.065-0.885-5.22-2.386
			c-0.538-0.692-1.283-2.168-1.719-5.259c-0.154-1.064-1.064-1.821-2.103-1.821c-0.115,0-0.244,0.013-0.372,0.025l-6.682,1.168
			c-1.078,0.191-1.834,1.154-1.758,2.244c0.231,3.296,1.116,6.17,2.604,8.517c1.514,2.386,3.374,4.155,5.516,5.259
			c1.218,0.628,2.514,1.129,3.886,1.5v2.745c0,1.18,0.95,2.13,2.129,2.13h6.926c1.181,0,2.13-0.95,2.13-2.13v-2.616
			c2.963-0.821,5.554-2.335,7.542-4.425c2.911-3.066,4.386-6.901,4.386-11.429c0-2.065-0.359-4.027-1.064-5.822
			C81.05,69.19,80.012,67.574,78.665,66.229z"/>
		<g>
			<g>
				<path fill="#5F6468" d="M116.989,37.01l5.054-4.823c1.782-1.706,1.052-4.708-1.309-5.4l-29.23-8.567
					c-2.373-0.693-4.604,1.437-4.015,3.835l7.183,29.59c0.577,2.398,3.54,3.27,5.336,1.564l4.194-4.001
					c1.538,3.976,2.54,8.157,2.988,12.505c0.834,7.978-0.296,16.083-3.284,23.472c-2.514,6.221-6.335,11.915-11.133,16.636
					c-1.206,1.192-1.295,3.116-0.18,4.399l6.734,7.759c1.205,1.386,3.321,1.476,4.655,0.206c6.645-6.4,11.929-14.198,15.392-22.729
					c4.015-9.901,5.528-20.777,4.412-31.475C122.928,51.862,120.645,44.166,116.989,37.01z"/>
			</g>
			<path fill="#5F6468" d="M13.534,96.151l-5.054,4.822c-1.783,1.706-1.052,4.707,1.309,5.399l29.23,8.568
				c2.374,0.692,4.604-1.437,4.015-3.835l-7.182-29.59c-0.577-2.398-3.541-3.271-5.336-1.564l-4.194,4.001
				c-1.539-3.976-2.539-8.157-2.988-12.505c-0.833-7.978,0.295-16.084,3.283-23.472c2.514-6.22,6.336-11.916,11.134-16.635
				c1.205-1.193,1.295-3.117,0.179-4.4l-6.733-7.76c-1.206-1.384-3.322-1.475-4.656-0.205c-6.644,6.4-11.928,14.198-15.392,22.728
				C7.134,51.606,5.62,62.482,6.736,73.18C7.596,81.298,9.878,88.994,13.534,96.151z"/>
		</g>
	</g>
</g>
</svg>
