<?xml version="1.0" encoding="utf-8"?>
<!-- Generator: Adobe Illustrator 16.0.4, SVG Export Plug-In . SVG Version: 6.00 Build 0)  -->
<!DOCTYPE svg PUBLIC "-//W3C//DTD SVG 1.1//EN" "http://www.w3.org/Graphics/SVG/1.1/DTD/svg11.dtd">
<svg version="1.1" id="Capa_1" xmlns="http://www.w3.org/2000/svg" xmlns:xlink="http://www.w3.org/1999/xlink" x="0px" y="0px"
	 width="128px" height="128px" viewBox="0 0 128 128" enable-background="new 0 0 128 128" xml:space="preserve">
<g>
	<g>
		<path fill="#5F6468" d="M83.638,43.364c0.921,0.921,2.415,0.921,3.335,0l27.338-27.339c0.92-0.921,0.92-2.413,0-3.336
			c-0.92-0.92-2.414-0.92-3.335,0L83.638,40.028C82.717,40.95,82.717,42.443,83.638,43.364z"/>
		<path fill="#5F6468" d="M107.264,64.042l-2.998-32.968l-8.231,8.23c0.479,3.056-0.454,6.291-2.808,8.646
			c-3.914,3.913-10.259,3.914-14.173,0c-3.912-3.914-3.912-10.261,0-14.174c2.355-2.354,5.588-3.285,8.643-2.808l8.233-8.233
			l-32.969-2.998c-1.297-0.117-2.58,0.347-3.502,1.269L6.286,74.18c-1.713,1.715-1.714,4.492,0,6.205l11.828,11.829l5.835-5.836
			l16.674,16.673l-5.835,5.835l11.828,11.828c1.715,1.714,4.49,1.714,6.204,0l53.177-53.174
			C106.915,66.619,107.379,65.336,107.264,64.042z"/>
	</g>
</g>
</svg>
